<svg xmlns="http://www.w3.org/2000/svg" viewBox="0 0 67.8 47.58"><defs><style>.cls-1{opacity:0.8;}.cls-2{fill:#D90466;}</style></defs><title>car-woman</title><g id="Capa_2" data-name="Capa 2"><g id="Capa_1-2" data-name="Capa 1"><g id="Recurso_9" data-name="Recurso 9"><g id="Capa_1-3" data-name="Capa 1-3"><g id="Group_29" data-name="Group 29" class="cls-1"><path id="Path_44" data-name="Path 44" class="cls-2" d="M0,31.43a.59.59,0,0,0,.51.66H5.1c.24,0,.24-.17.27-.31a4.46,4.46,0,0,1,1.34-2.42,4.51,4.51,0,0,1,4.45-1.19,4.59,4.59,0,0,1,3.47,3.61c.06.26.16.31.4.31h8.79c.24,0,.33-.06.39-.32a4.55,4.55,0,0,1,1.18-2.25l.33-.36h-8.5c-.32,0-.43,0-.43-.41V12.51a1.11,1.11,0,0,0-1.14-1.06H10a4.42,4.42,0,0,0-3.68,2.07C5.19,15.15,4.1,16.8,3,18.43a5.37,5.37,0,0,0-1,3.15v7.24c0,.25,0,.34-.3.32s-.67,0-1,0a.65.65,0,0,0-.68.63s0,0,0,.05C0,30.28,0,30.9,0,31.43ZM6,18.73c.88-1.25,1.77-2.5,2.64-3.75a.87.87,0,0,1,.79-.4h4c.59,0,.78.19.78.78v3.55c0,.63-.19.82-.83.82H6.5a.62.62,0,0,1-.64-.32A.61.61,0,0,1,6,18.73Z"/><path id="Path_47" data-name="Path 47" class="cls-2" d="M18.39,26.79A1.14,1.14,0,0,0,19.44,28H37a7.76,7.76,0,0,1-2.83-5.2A23.18,23.18,0,0,1,34,20.48H19.76a1.34,1.34,0,0,0-1.05.35,1.23,1.23,0,0,0-.32.86Z"/><path id="Path_48" data-name="Path 48" class="cls-2" d="M30.55,17.47a1.17,1.17,0,0,0,1,1.29H34a22.63,22.63,0,0,1,1.48-7c.07-.19.15-.37.22-.55H31.9a1.14,1.14,0,0,0-1.3,1.29C30.54,14.18,30.54,15.82,30.55,17.47Z"/><path id="Path_49" data-name="Path 49" class="cls-2" d="M23.61,18.73h3.86a1.21,1.21,0,0,0,1.34-1.35V12.51a1.16,1.16,0,0,0-1.29-1.3H19.7a1.15,1.15,0,0,0-1.3,1.3v4.9a1.18,1.18,0,0,0,1.33,1.32Z"/><path id="Path_50" data-name="Path 50" class="cls-2" d="M25.23,32.79a3.6,3.6,0,1,0,3.6-3.62A3.65,3.65,0,0,0,25.23,32.79Zm1.81,0a1.8,1.8,0,1,1,.86,1.67A1.8,1.8,0,0,1,27,32.79Z"/><path id="Path_51" data-name="Path 51" class="cls-2" d="M6.4,32.79a3.6,3.6,0,1,0,1.74-3.28A3.6,3.6,0,0,0,6.4,32.79Zm1.79,0A1.81,1.81,0,0,1,10,31a1.77,1.77,0,0,1,1.78,1.76s0,0,0,0A1.81,1.81,0,0,1,10,34.61a1.83,1.83,0,0,1-1.82-1.84v0Z"/><path id="Path_54" data-name="Path 54" class="cls-2" d="M35.26,44a14.13,14.13,0,0,0,5.22,2.29,39.83,39.83,0,0,0,22-.55A12.22,12.22,0,0,0,65,44.63c2.41-1.4,3.1-3,2.62-5.69a8.52,8.52,0,0,0-3.61-5.63,34.87,34.87,0,0,0-3.41-2.08c-.74-.42-1.47-.86-2.33-1.36.67-.22,1.21-.38,1.73-.58a8.38,8.38,0,0,0,5.62-7.12,23.28,23.28,0,0,0-3-15.29c-5-8.5-15.46-8.23-20.64-4a16.24,16.24,0,0,0-4.81,6.56c-.08.2-.17.4-.24.61a24.85,24.85,0,0,0-1.64,7.68v1.91a25,25,0,0,0,.23,2.57,8.54,8.54,0,0,0,3.12,5.72,9,9,0,0,0,2.19,1.27,11.08,11.08,0,0,0,1.37.5.58.58,0,0,1,.35.08.52.52,0,0,1,.2.14l-.19.14a17.1,17.1,0,0,1-1.74,1c-.77.43-1.54.86-2.29,1.31A18.59,18.59,0,0,0,37,33.49a8.55,8.55,0,0,0-3.53,6.79A4.17,4.17,0,0,0,35.26,44ZM56.9,27.84c-.08,0-.15,0-.22,0A3.4,3.4,0,0,1,56.57,26,13.69,13.69,0,0,0,59,21.08a1,1,0,0,1,.38-.53,5.16,5.16,0,0,0,1.67-5.74.57.57,0,0,0-.28-.39,8.23,8.23,0,0,0-4-1.19c-1.6.07-3.21,0-4.82,0a3.18,3.18,0,0,1-2.36-1A9.23,9.23,0,0,1,47.9,10c-.46-.81-.88-1.65-1.32-2.48-.09-.16-.11-.41-.43-.27A3.16,3.16,0,0,0,44,9.6c-.1.51-.25,1-.33,1.52a4.63,4.63,0,0,1-.61,1.71,3.19,3.19,0,0,1-2.38,1.41.41.41,0,0,0-.43.28,5.06,5.06,0,0,0-.2,3.21,5.13,5.13,0,0,0,.88,1.91,4.5,4.5,0,0,0,.83.86,1.68,1.68,0,0,1,.56.85,18.09,18.09,0,0,0,.76,2.06,10.63,10.63,0,0,0,1.44,2.39c.29.38.42,1.71.09,2s-.81,0-1.22-.09a3.42,3.42,0,0,1-.6-.18h0a6.38,6.38,0,0,1-4.53-4,12.45,12.45,0,0,1-.62-3.84v-.27c0-.58,0-1.12,0-1.64a23.38,23.38,0,0,1,.53-3.9,20.37,20.37,0,0,1,1.53-4.39,15,15,0,0,1,2.45-3.63C46.6.93,56.4.73,60.74,7.93a21.84,21.84,0,0,1,2.94,12.28,9.89,9.89,0,0,1-.85,3.94c-1.22,2.39-3.46,3.23-5.93,3.73Zm1,8.91-3.2-.49a13.2,13.2,0,0,0,2.63-2.76,8.28,8.28,0,0,1,.82,2.9c0,.2.11.44-.23.39Zm-5.41,1.57a18.18,18.18,0,0,1,3.29.34c.42.06.53.13.33.55a16.45,16.45,0,0,0-1.65,5.53c0,.3-.16.42-.47.44-.6,0-1.21.06-1.81.12-.38,0-.51,0-.5-.46V41.9c0-.94,0-1.83,0-2.75,0-.63.28-.78.83-.79Zm-2.06-2c-1.23-1.06-2.65-1.87-3.87-3a4.21,4.21,0,0,1-1.37-2c0-.19-.1-.34.08-.51a5.68,5.68,0,0,0,1.64-3.86,3.06,3.06,0,0,0-.78-2.7,10.09,10.09,0,0,1-2-4.45,1.21,1.21,0,0,0-.64-.84,2.66,2.66,0,0,1-1.27-1.4,2.48,2.48,0,0,1-.15-.8.66.66,0,0,1,.51-.76l.44-.17a4.36,4.36,0,0,0,2.36-2.72c.2-.63.35-1.28.54-2a14,14,0,0,0,2,2.69,5.22,5.22,0,0,0,3.93,1.62h4.75a5.13,5.13,0,0,1,2,.42.68.68,0,0,1,.47.76,2.53,2.53,0,0,1-1.36,2.3,1.54,1.54,0,0,0-.77,1A10.56,10.56,0,0,1,54.38,25a.43.43,0,0,0-.17.32c0,1.92.09,3.82,1.54,5.3a.62.62,0,0,1,.15.77,5.57,5.57,0,0,1-1.26,1.92,27.67,27.67,0,0,1-3.77,3c-.14.14-.25.18-.42,0Zm-5.55,2.41.61-.12a12.17,12.17,0,0,1,3.35-.3c.35,0,.68,0,.67.58v6c0,.33-.08.45-.42.42a13.54,13.54,0,0,0-1.68-.11c-.5,0-.71-.17-.7-.68a5,5,0,0,0-.15-.92,21.46,21.46,0,0,0-1.68-4.87ZM43,36.45a8.32,8.32,0,0,1,.9-2.65,12.89,12.89,0,0,0,2.66,2.43c-1.18.2-2.24.36-3.3.55C43,36.83,43,36.65,43,36.45Z"/></g></g></g></g></g></svg>