<svg xmlns="http://www.w3.org/2000/svg" viewBox="0 0 21.86 20.95"><defs><style>.cls-1{fill:#bf0067;}</style></defs><title>donwloader</title><g id="Capa_2" data-name="Capa 2"><g id="Capa_1-2" data-name="Capa 1"><g id="Group_134" data-name="Group 134"><g id="Group_107" data-name="Group 107"><g id="Recurso_8" data-name="Recurso 8"><g id="Capa_1-4" data-name="Capa 1-4"><path id="Path_30" data-name="Path 30" class="cls-1" d="M18.48,21H3.38A3.39,3.39,0,0,1,0,17.57V13.38a.66.66,0,1,1,1.32,0v4.19a2.06,2.06,0,0,0,2.06,2.06h15.1a2.06,2.06,0,0,0,2.06-2.06V13.38a.66.66,0,1,1,1.32,0v4.19A3.39,3.39,0,0,1,18.48,21Z"/><path id="Path_31" data-name="Path 31" class="cls-1" d="M10.68,13.66a.7.7,0,0,1-.46-.19L5.94,9.19a.66.66,0,0,1,.93-.93l3.81,3.81L14.5,8.26a.65.65,0,0,1,.92,0h0a.67.67,0,0,1,0,.93l-4.28,4.28A.7.7,0,0,1,10.68,13.66Z"/><path id="Path_32" data-name="Path 32" class="cls-1" d="M10.68,13.66A.66.66,0,0,1,10,13V.74a.66.66,0,1,1,1.31,0V13a.66.66,0,0,1-.66.66Z"/></g></g></g></g></g></g></svg>