<svg xmlns="http://www.w3.org/2000/svg" viewBox="0 0 289.16 288.19"><defs><style>.cls-1{fill:none;}.cls-2{fill:#9e1a62; opacity:.2;}</style></defs><title>libelula-d</title><g id="Capa_2" data-name="Capa 2"><g id="Capa_1-2" data-name="Capa 1"><path class="cls-2" d="M121.48,48.05a8.55,8.55,0,1,0-12.07-.6A8.56,8.56,0,0,0,121.48,48.05Z"/><circle class="cls-2" cx="131.26" cy="41.15" r="5.52" transform="translate(6.32 98.7) rotate(-42.13)"/><path class="cls-2" d="M277.95,24.56c-28-8.3-98.52,4.72-138.92,39.63,0-3.9-1.06-13.48-12.66-14.77-3.64.24-6.25,1.29-7.79,3.38-2.87,3.64-2.09,9.78-1,15.76a.94.94,0,0,1-.55,1c-17.1,6.94-35.63,16.62-41.86,20.62a1.44,1.44,0,0,0-.82,1.26,1.17,1.17,0,0,0,.59,1.05,1.45,1.45,0,0,0,1.54-.08c11.31-5.86,26.06-12.24,34.44-13.74C96.95,88.94,83.22,109,77.32,120.14a1.66,1.66,0,0,0-.14,1.72,1.28,1.28,0,0,0,1.11.66,1.67,1.67,0,0,0,1.45-.9c15.13-22.84,32.68-32.69,39.53-35.84A4.79,4.79,0,0,0,122,81.06c-.34-4.72.2-7,.84-7.56.09-.08.2-.21.62-.08,2.16.65,2.32,1.84,2.78,7.36,30.3,114.89,126.54,202.67,129.75,206,3.49,3.42,9.49.39,4.06-5.61C147.73,171.06,150.38,112,150.43,109.86a10.51,10.51,0,0,0-2.74-6.1c-5.6-5.84-4.78-10.13-5.55-13.3a.3.3,0,0,1,.11-.29l0,0,.21,0c2.77,1.48,5.51.73,7.49-2a12.51,12.51,0,0,1,1.45-1.79c.17-.17.35-.33.54-.51,18.29-16.55,75.26-20.72,92.32-9.94,3.48,2.2,4.67,4.79,3.66,7.8-8.58,17.48-32.28,20-77.17,8-1.14-.33-2,.17-2.16.8a1.35,1.35,0,0,0,.95,1.68c24.13,11.43,53.92,13.82,73.49,4.6,7.65-3.63,12.34-8.58,13.91-14.88a11.92,11.92,0,0,0-4.15-11.72c-18-15.54-80.34-5.61-110.36,4.17a3.44,3.44,0,0,1-4-1.09c-.76-1.06-.59-2.39.47-3.64A67.45,67.45,0,0,1,145.33,65c32-29,100.21-41.2,124.12-34.56,3.27.91,7.29,2.64,7.78,5.72.81,5.34-12.48,13.94-35.74,23.05a1.9,1.9,0,0,0-1.08,2.3c.27.75,1.17,1.42,2.82,1C259.4,59.38,281,49.56,287.29,40A9,9,0,0,0,289,33C287.93,29.25,284.21,26.42,277.95,24.56Z"/><path class="cls-2" d="M120.74,89.89a1.36,1.36,0,0,0-1.73.93s-.75,2.43-2.06,6.72-3.08,10.29-5.47,17.46c-3,9.19-5.71,16.91-8.58,24.29-3.47,8.75-7.38,18-12.46,26.17a48,48,0,0,1-8.37,10.71l-.11.1a14.14,14.14,0,0,1-4.75,2.92,5.24,5.24,0,0,1-3.66,0c-1.49-.56-2.86-3.92-3.33-8.17a69.28,69.28,0,0,1-.06-11.44,175.73,175.73,0,0,1,2.37-17.84l1.26-6.93a1.41,1.41,0,0,0-.75-1.45A1.38,1.38,0,0,0,72,133.3a1.25,1.25,0,0,0-.81.67c0,.09-1.29,2.34-3,6.51a90.86,90.86,0,0,0-5.4,18.14,54.52,54.52,0,0,0-1,13.11,27.1,27.1,0,0,0,1.43,7.77,13.62,13.62,0,0,0,6.44,7.79A11.64,11.64,0,0,0,75,188.59a13.83,13.83,0,0,0,2.74-.21,15.87,15.87,0,0,0,2.39-.62,23.33,23.33,0,0,0,7.82-4.82,54.18,54.18,0,0,0,10-13,149.47,149.47,0,0,0,12-28.09c3.31-9.93,5.56-19.22,7-25.33,1.69-7.63,2.88-14,3.66-18.16.71-4.4,1.11-6.91,1.11-6.93A1.39,1.39,0,0,0,120.74,89.89Z"/><path class="cls-2" d="M61.63,127.88a1.41,1.41,0,0,0-1.93-.5s-2.14,1.28-5.62,3.61l-1.3.86c-3.41,2.26-8,5.28-13.17,8.89l-2.75,1.88c-2.16,1.47-4.43,3-6.83,4.56l-.3.2a106.61,106.61,0,0,1-10.49,6.16,34.63,34.63,0,0,1-5.66,2.28c-1.84.51-3.46.57-4.31.13a1.6,1.6,0,0,1-.42-.26l-.34-.32c-.13-.15-.27-.32-.36-.44a2.69,2.69,0,0,1-.37-1.21,10.48,10.48,0,0,1,1.45-4.84,57.43,57.43,0,0,1,8-10.6c3.11-3.37,6.5-6.55,9.7-9.48,5.49-5.08,11.61-10.16,18.7-15.61,5.22-4.11,10.13-7.84,13.81-10.5l5.32-3.94A1.35,1.35,0,0,0,65.2,97a1.41,1.41,0,0,0-1.89-.59c-.08,0-8.76,4.54-20.84,12.41-7.72,5.21-14.1,9.89-20.09,14.75-3.76,3.1-7.28,6.34-10.53,9.6a56.58,56.58,0,0,0-9.43,12.13A17.5,17.5,0,0,0,0,154.13a10,10,0,0,0,2,5.64l.23.27a10.06,10.06,0,0,0,1.41,1.44,9,9,0,0,0,2.52,1.59c3.39,1.44,6.56.93,9.51.13a35.88,35.88,0,0,0,7-3A97,97,0,0,0,34,152.84c3.81-2.87,6.75-5.19,9.26-7.28,4.39-3.63,8-6.88,11-9.49l2.24-2c1-.91,1.94-1.72,2.67-2.38,1.47-1.33,2.27-2.08,2.29-2.1A1.41,1.41,0,0,0,61.63,127.88Z"/></g></g></svg>