<svg xmlns="http://www.w3.org/2000/svg" viewBox="0 0 379.96 425.77"><defs><style>.cls-1{fill:none;}.cls-2{fill:#9e1a62;}</style></defs><title>libelula-i</title><g id="Capa_2" data-name="Capa 2"><g id="Capa_1-2" data-name="Capa 1"><path class="cls-1" d="M0,0V425.77H380V0ZM307.87,208.64a3.94,3.94,0,1,1-2.33-5.06A3.94,3.94,0,0,1,307.87,208.64ZM293,195.53a6.1,6.1,0,1,1,3.61,7.84A6.11,6.11,0,0,1,293,195.53ZM169.86,77a1.11,1.11,0,1,1-.66-1.43A1.12,1.12,0,0,1,169.86,77Zm-4.22-3.71a1.73,1.73,0,1,1,1,2.22A1.73,1.73,0,0,1,165.64,73.25Zm-39.36,144a.64.64,0,1,1-.38-.82A.64.64,0,0,1,126.28,217.21Zm-2.4-2.11a1,1,0,1,1,.58,1.26A1,1,0,0,1,123.88,215.09Zm-17.31-4.37a1,1,0,0,1,0-.34,1.16,1.16,0,0,1,.07-.22l0,0a1.15,1.15,0,0,1,.47-.51,2,2,0,0,1,1-.22,6.52,6.52,0,0,1,1.74.32c.51.16,1,.34,1.54.56.82.35,1.63.75,2.58,1.26,1.45.81,2.37,1.46,2.38,1.46a.16.16,0,0,1,0,.22.16.16,0,0,1-.2.05l-.69-.33c-.47-.23-1.11-.54-1.81-.85-.93-.43-1.78-.79-2.59-1.08-.47-.17-1-.35-1.49-.48a6.62,6.62,0,0,0-1.51-.25,1.21,1.21,0,0,0-.57.11.31.31,0,0,0-.1.1l0,.06v.05a.18.18,0,0,0,0,.06.77.77,0,0,0,.24.43,4,4,0,0,0,.53.46,12.29,12.29,0,0,0,1.19.74l0,0,.83.45.34.18,1.61.87.16.09c.42.23.67.38.67.38a.16.16,0,0,1,.05.22.16.16,0,0,1-.19.07l-.34-.12-.39-.15-.32-.12c-.42-.16-1-.36-1.55-.62-.35-.14-.74-.32-1.24-.56a11.17,11.17,0,0,1-1.35-.76,4.13,4.13,0,0,1-.68-.56A1.6,1.6,0,0,1,106.57,210.72Zm2.14,8.11a1.63,1.63,0,0,0,.55.33h0a5.53,5.53,0,0,0,1.54.28,19.1,19.1,0,0,0,3.34-.12c.91-.1,1.84-.24,2.94-.42.86-.14,1.56-.27,2.07-.37l.8-.15a.16.16,0,0,1,.19.13.16.16,0,0,1-.1.18l-.77.26c-.47.14-1.18.36-2,.59-.7.18-1.77.45-3,.64a17.22,17.22,0,0,1-3.51.27,6.24,6.24,0,0,1-1.86-.33,2.69,2.69,0,0,1-.91-.54,1.82,1.82,0,0,1-.19-.21,1.59,1.59,0,0,1-.17-.27,1.34,1.34,0,0,1-.16-.62,1.57,1.57,0,0,1,.45-1.07,3.12,3.12,0,0,1,.72-.56,6.28,6.28,0,0,1,1.39-.6,10.46,10.46,0,0,1,2.14-.42c.52,0,.81,0,.83,0a.14.14,0,0,1,.11,0,.16.16,0,0,1,0,.11.16.16,0,0,1-.11.15l-.77.24a20.22,20.22,0,0,0-1.95.71,8,8,0,0,0-1.16.62c-.41.28-.68.59-.66.78A.6.6,0,0,0,108.71,218.83Zm26.22,13.82a1,1,0,0,1-.8.2c-1.32-.13-3.47-1.81-4.65-3.29-.13-.15-.11-.27,0-.34a.22.22,0,0,1,.29,0c2.17,1.89,3.76,2.79,4.26,2.42.29-.21.25-.72.17-1.1-.6-2.79-5.48-9.1-10.15-10.83a7.78,7.78,0,0,0-1-.3.33.33,0,0,0-.4.15.4.4,0,0,0,.1.46c2.6,2.54,6.94,8.38,6.31,11a1.37,1.37,0,0,1-1,1,2.66,2.66,0,0,1-2.26-.63c-2-1.51-3.33-4.67-3.45-7.75a.16.16,0,0,1,.12-.19c.07,0,.17,0,.2.18,1.17,5.22,2.69,7.5,4.94,7.45.36-.06.56-.32.6-.79.19-2.32-3.27-7.91-5.94-8.89l-.08,0a1.44,1.44,0,0,0-.26-.05.63.63,0,0,1-.61-.66l0,0h0a2.28,2.28,0,0,0-1.06,1.28,1.21,1.21,0,0,1-.48.6c-.22.11-6.39,3-11.64,20.33-.32.87-1,.42-.79-.11s4-15,14.1-24.23c.54-.34.65-.42.6-.68,0-.05,0-.05,0-.06s-.35,0-.82.32a.55.55,0,0,1-.63,0,11.44,11.44,0,0,0-5.77-2.12.19.19,0,0,1-.17-.1.15.15,0,0,1,0-.15.19.19,0,0,1,.18-.08,16.06,16.06,0,0,1,6,1.22,17.7,17.7,0,0,0-3.24-2.78.17.17,0,0,1-.09-.15.13.13,0,0,1,.08-.12.17.17,0,0,1,.17,0A37.44,37.44,0,0,1,122,217a.11.11,0,0,0,.14,0c.55-.43,1.14-.83,1.66-.73a1.13,1.13,0,0,1,.76.61,1.56,1.56,0,0,1-.83,2.08c5.72,2.26,10.81,8.76,11.45,12.07A1.66,1.66,0,0,1,134.93,232.65Zm.34-167.07a1.82,1.82,0,0,1,0-.6,2,2,0,0,1,.13-.39l0-.07a2,2,0,0,1,.82-.89,3.54,3.54,0,0,1,1.81-.39,11.43,11.43,0,0,1,3.05.55c.89.28,1.8.6,2.7,1,1.43.62,2.87,1.32,4.52,2.22,2.54,1.43,4.16,2.56,4.17,2.57a.29.29,0,0,1,.07.39.27.27,0,0,1-.36.09l-1.2-.58c-.82-.41-1.95-.94-3.17-1.49-1.64-.76-3.12-1.38-4.55-1.89-.82-.3-1.71-.61-2.61-.85a11.61,11.61,0,0,0-2.65-.44,2.12,2.12,0,0,0-1,.19.54.54,0,0,0-.18.18l0,.11,0,.09a.33.33,0,0,0,0,.1,1.36,1.36,0,0,0,.43.76,7,7,0,0,0,.94.8,21.56,21.56,0,0,0,2.09,1.3l.06,0c.5.29,1,.55,1.45.8l.59.32c1.13.6,2.1,1.13,2.82,1.53l.28.15c.74.41,1.17.67,1.17.67a.29.29,0,0,1,.09.39.28.28,0,0,1-.33.12l-.59-.21-.68-.25-.57-.22c-.74-.28-1.67-.63-2.73-1.08-.61-.25-1.3-.56-2.17-1a19.59,19.59,0,0,1-2.37-1.33,7.25,7.25,0,0,1-1.19-1A2.81,2.81,0,0,1,135.28,65.58ZM139,79.81a2.86,2.86,0,0,0,1,.58h0a9.7,9.7,0,0,0,2.7.5,33.51,33.51,0,0,0,5.85-.22c1.59-.18,3.23-.41,5.15-.74,1.51-.24,2.74-.48,3.64-.65l1.4-.26a.27.27,0,0,1,.33.22.28.28,0,0,1-.18.32l-1.34.45c-.83.25-2.07.63-3.59,1-1.23.32-3.1.79-5.19,1.12a30.2,30.2,0,0,1-6.16.47,11,11,0,0,1-3.27-.58,4.71,4.71,0,0,1-1.6-.95,3.21,3.21,0,0,1-.33-.37,2.79,2.79,0,0,1-.29-.47,2.35,2.35,0,0,1-.27-1.09,2.75,2.75,0,0,1,.79-1.88,5.47,5.47,0,0,1,1.26-1,11,11,0,0,1,2.44-1,18.35,18.35,0,0,1,3.75-.73c.91-.08,1.43-.07,1.45-.07a.25.25,0,0,1,.2.08.28.28,0,0,1,.09.2.29.29,0,0,1-.19.27l-1.36.42a35.51,35.51,0,0,0-3.42,1.24,14,14,0,0,0-2,1.08c-.72.48-1.19,1-1.15,1.36A1.06,1.06,0,0,0,139,79.81Zm46,24.25a1.82,1.82,0,0,1-1.41.35c-2.31-.23-6.08-3.18-8.17-5.78-.23-.26-.19-.48-.08-.6a.38.38,0,0,1,.51,0c3.81,3.31,6.59,4.89,7.47,4.24.51-.38.44-1.26.3-1.93-1-4.9-9.61-16-17.8-19a13.63,13.63,0,0,0-1.78-.53.58.58,0,0,0-.69.26.7.7,0,0,0,.18.82c4.56,4.46,12.18,14.7,11.07,19.37a2.41,2.41,0,0,1-1.71,1.84,4.67,4.67,0,0,1-4-1.1c-3.48-2.64-5.84-8.2-6.05-13.59a.27.27,0,0,1,.21-.33c.13,0,.3.08.35.31,2.05,9.16,4.73,13.17,8.66,13.07.64-.1,1-.56,1.05-1.39.33-4.06-5.74-13.88-10.42-15.6l-.14,0a2.53,2.53,0,0,0-.46-.09,1.1,1.1,0,0,1-1.07-1.15l0,0h0a.06.06,0,0,0-.06,0,4,4,0,0,0-1.86,2.24,2.12,2.12,0,0,1-.84,1.06c-.39.19-11.21,5.24-20.41,35.66-.57,1.53-1.67.74-1.38-.2s7-26.33,24.74-42.51c.95-.6,1.14-.74,1.06-1.19,0-.09,0-.1-.07-.1s-.62.06-1.43.56a1,1,0,0,1-1.11-.05,20.08,20.08,0,0,0-10.12-3.73.34.34,0,0,1-.3-.17.26.26,0,0,1,0-.26.34.34,0,0,1,.32-.14c2.55,0,7.42.6,10.56,2.13a31.06,31.06,0,0,0-5.68-4.88.29.29,0,0,1-.16-.27.24.24,0,0,1,.13-.2.29.29,0,0,1,.3,0,65.68,65.68,0,0,1,7.61,5.57.19.19,0,0,0,.24,0c1-.75,2-1.46,2.92-1.29a2,2,0,0,1,1.34,1.08,2.74,2.74,0,0,1-1.46,3.65c10,4,19,15.37,20.1,21.17A2.91,2.91,0,0,1,185,104.06Zm.61,64.37a6.43,6.43,0,0,1,.18-2.12,7.19,7.19,0,0,1,.44-1.37l.1-.24a7.16,7.16,0,0,1,2.91-3.13,12.5,12.5,0,0,1,6.4-1.39,40.4,40.4,0,0,1,10.79,2c3.14,1,6.35,2.13,9.56,3.49,5.06,2.18,10.13,4.68,16,7.84,9,5,14.69,9,14.74,9.08a1,1,0,0,1,.25,1.39,1,1,0,0,1-1.26.33l-4.25-2.06c-2.9-1.45-6.89-3.33-11.21-5.27-5.79-2.69-11-4.88-16.06-6.67-2.91-1.06-6-2.15-9.21-3a41,41,0,0,0-9.35-1.56,7.48,7.48,0,0,0-3.54.68,1.92,1.92,0,0,0-.65.63c0,.1-.11.24-.16.37l-.09.32a1.14,1.14,0,0,0,0,.35,4.8,4.8,0,0,0,1.51,2.69,24.73,24.73,0,0,0,3.31,2.83,76.15,76.15,0,0,0,7.37,4.6l.23.13c1.76,1,3.49,1.93,5.14,2.81l2.1,1.12c4,2.1,7.42,4,10,5.39l1,.54c2.63,1.44,4.13,2.35,4.14,2.37a1,1,0,0,1,.32,1.39,1,1,0,0,1-1.16.42s-.76-.26-2.09-.75c-.66-.24-1.46-.54-2.39-.9l-2-.76c-2.62-1-5.89-2.24-9.64-3.82-2.15-.89-4.59-2-7.67-3.45a69.22,69.22,0,0,1-8.39-4.69,25.62,25.62,0,0,1-4.22-3.45A10,10,0,0,1,185.65,168.43Zm13.29,50.28a10.1,10.1,0,0,0,3.42,2l.1,0a34.28,34.28,0,0,0,9.54,1.76,118.42,118.42,0,0,0,20.68-.77c5.62-.63,11.4-1.46,18.21-2.6,5.33-.86,9.68-1.7,12.86-2.31l4.93-.92a1,1,0,0,1,1.16.79,1,1,0,0,1-.65,1.14l-4.75,1.59c-2.92.89-7.31,2.24-12.7,3.69-4.33,1.13-11,2.78-18.33,4a106.72,106.72,0,0,1-21.76,1.66,38.68,38.68,0,0,1-11.55-2.06,16.65,16.65,0,0,1-5.64-3.35,11.33,11.33,0,0,1-1.18-1.31,9.88,9.88,0,0,1-1-1.67,8.31,8.31,0,0,1-1-3.84,9.72,9.72,0,0,1,2.8-6.65,19.35,19.35,0,0,1,4.44-3.47,38.93,38.93,0,0,1,8.64-3.69,64.87,64.87,0,0,1,13.27-2.58c3.22-.28,5.05-.24,5.12-.24a.89.89,0,0,1,.69.29,1,1,0,0,1,.3.71,1,1,0,0,1-.67,1l-4.8,1.49a125.47,125.47,0,0,0-12.07,4.4,49.47,49.47,0,0,0-7.22,3.82c-2.53,1.71-4.2,3.68-4.07,4.81A3.74,3.74,0,0,0,198.94,218.71Zm157.57,86.92c-8.16-.82-21.5-11.23-28.86-20.41-.8-.91-.67-1.7-.29-2.12a1.36,1.36,0,0,1,1.82-.08c13.46,11.71,23.29,17.27,26.41,15,1.79-1.33,1.55-4.44,1-6.81-3.71-17.32-34-56.42-62.92-67.11a48.16,48.16,0,0,0-6.28-1.86,2,2,0,0,0-2.46.91,2.46,2.46,0,0,0,.63,2.88c16.11,15.76,43,51.94,39.13,68.46a8.51,8.51,0,0,1-6,6.5c-4.51,1.09-9.19-.24-14-3.88-12.31-9.34-20.65-29-21.39-48a1,1,0,0,1,.75-1.16c.46-.1,1.05.27,1.22,1.1,7.25,32.38,16.71,46.53,30.6,46.18,2.24-.36,3.49-2,3.73-4.9,1.18-14.36-20.3-49-36.82-55.14l-.5-.17a8.92,8.92,0,0,0-1.61-.32c-2.41-.34-3.79-1.82-3.77-4.06l-.09-.12h0a.21.21,0,0,0-.22,0c-1.76,1.53-4.74,2.43-6.58,7.91a7.5,7.5,0,0,1-3,3.75c-1.37.68-39.62,18.53-72.14,126-2,5.42-5.9,2.63-4.89-.71,1-3.12,24.76-93.05,87.44-150.22,3.34-2.11,4-2.61,3.74-4.19-.05-.31-.17-.34-.25-.37-.57-.21-2.18.2-5.06,2a3.42,3.42,0,0,1-3.91-.19c-4.26-3.29-16.3-11.14-35.75-13.16a1.19,1.19,0,0,1-1-.62.91.91,0,0,1,.05-.92,1.19,1.19,0,0,1,1.14-.48c9,0,26.24,2.1,37.3,7.54-3.72-4.81-12.63-12-20.08-17.25a1,1,0,0,1-.56-.95.83.83,0,0,1,.47-.72,1,1,0,0,1,1.07.1c4.59,2.62,16.84,11.14,26.89,19.67a.67.67,0,0,0,.84,0c3.44-2.64,7.07-5.16,10.32-4.55,1.83.28,3.37,1.59,4.72,3.81,3,7.76-2.68,11.63-5.16,12.89,35.45,14,67,54.32,71,74.81.9,4.57.33,7.87-1.69,9.78A6.43,6.43,0,0,1,356.51,305.62Z"/><path class="cls-2" d="M296.57,203.37a6.1,6.1,0,1,0-3.61-7.84A6.11,6.11,0,0,0,296.57,203.37Z"/><circle class="cls-2" cx="304.17" cy="207.28" r="3.94" transform="translate(4.33 420.77) rotate(-69.72)"/><path class="cls-2" d="M363.17,294.62c-4-20.49-35.56-60.79-71-74.81,2.48-1.27,8.18-5.13,5.16-12.89-1.35-2.22-2.89-3.53-4.72-3.81-3.25-.61-6.88,1.91-10.32,4.55a.67.67,0,0,1-.84,0c-10-8.53-22.3-17-26.89-19.67a1,1,0,0,0-1.07-.1.83.83,0,0,0-.47.72,1,1,0,0,0,.56.95c7.45,5.22,16.36,12.44,20.08,17.25-11.06-5.43-28.29-7.49-37.3-7.54a1.19,1.19,0,0,0-1.14.48.91.91,0,0,0-.05.92,1.19,1.19,0,0,0,1,.62c19.46,2,31.49,9.87,35.75,13.16a3.42,3.42,0,0,0,3.91.19c2.87-1.77,4.48-2.18,5.06-2,.08,0,.2.06.25.37.3,1.58-.4,2.08-3.74,4.19C214.76,274.39,191,364.32,190,367.44c-1,3.34,2.89,6.13,4.89.71,32.52-107.5,70.77-125.35,72.14-126a7.5,7.5,0,0,0,3-3.75c1.84-5.48,4.83-6.38,6.58-7.91a.21.21,0,0,1,.22,0h0l.09.12c0,2.25,1.36,3.72,3.77,4.06a8.92,8.92,0,0,1,1.61.32l.5.17c16.52,6.1,38,40.77,36.82,55.14-.24,2.93-1.48,4.54-3.73,4.9-13.9.35-23.36-13.8-30.6-46.18-.17-.83-.76-1.2-1.22-1.1a1,1,0,0,0-.75,1.16c.74,19.05,9.08,38.69,21.39,48,4.83,3.64,9.51,5,14,3.88a8.51,8.51,0,0,0,6-6.5c3.89-16.51-23-52.7-39.13-68.46a2.46,2.46,0,0,1-.63-2.88,2,2,0,0,1,2.46-.91,48.16,48.16,0,0,1,6.28,1.86c28.95,10.69,59.21,49.79,62.92,67.11.51,2.37.74,5.48-1,6.81-3.11,2.28-12.95-3.29-26.41-15a1.36,1.36,0,0,0-1.82.08c-.38.42-.51,1.21.29,2.12,7.35,9.19,20.7,19.59,28.86,20.41a6.43,6.43,0,0,0,5-1.22C363.51,302.49,364.07,299.19,363.17,294.62Z"/><path class="cls-2" d="M201.78,211.59a49.47,49.47,0,0,1,7.22-3.82,125.47,125.47,0,0,1,12.07-4.4l4.8-1.49a1,1,0,0,0,.67-1,1,1,0,0,0-.3-.71.89.89,0,0,0-.69-.29c-.07,0-1.9,0-5.12.24a64.87,64.87,0,0,0-13.27,2.58,38.93,38.93,0,0,0-8.64,3.69,19.35,19.35,0,0,0-4.44,3.47,9.72,9.72,0,0,0-2.8,6.65,8.31,8.31,0,0,0,1,3.84,9.88,9.88,0,0,0,1,1.67,11.33,11.33,0,0,0,1.18,1.31,16.65,16.65,0,0,0,5.64,3.35,38.68,38.68,0,0,0,11.55,2.06,106.72,106.72,0,0,0,21.76-1.66c7.38-1.19,14-2.84,18.33-4,5.39-1.45,9.78-2.79,12.7-3.69l4.75-1.59a1,1,0,0,0,.65-1.14,1,1,0,0,0-1.16-.79l-4.93.92c-3.18.61-7.53,1.45-12.86,2.31-6.81,1.15-12.59,2-18.21,2.6a118.42,118.42,0,0,1-20.68.77,34.28,34.28,0,0,1-9.54-1.76l-.1,0a10.1,10.1,0,0,1-3.42-2,3.74,3.74,0,0,1-1.22-2.31C197.58,215.27,199.25,213.3,201.78,211.59Z"/><path class="cls-2" d="M201.32,182.63c3.08,1.46,5.52,2.56,7.67,3.45,3.75,1.58,7,2.82,9.64,3.82l2,.76c.92.36,1.73.66,2.39.9,1.32.49,2.07.75,2.09.75a1,1,0,0,0,1.16-.42,1,1,0,0,0-.32-1.39s-1.51-.93-4.14-2.37l-1-.54c-2.56-1.41-6-3.29-10-5.39l-2.1-1.12c-1.65-.88-3.38-1.8-5.14-2.81l-.23-.13a76.15,76.15,0,0,1-7.37-4.6,24.73,24.73,0,0,1-3.31-2.83,4.8,4.8,0,0,1-1.51-2.69,1.14,1.14,0,0,1,0-.35l.09-.32c0-.13.11-.28.16-.37a1.92,1.92,0,0,1,.65-.63,7.48,7.48,0,0,1,3.54-.68,41,41,0,0,1,9.35,1.56c3.16.85,6.3,1.95,9.21,3,5,1.8,10.27,4,16.06,6.67,4.33,1.94,8.31,3.82,11.21,5.27l4.25,2.06a1,1,0,0,0,1.26-.33,1,1,0,0,0-.25-1.39c-.06,0-5.77-4-14.74-9.08-5.85-3.16-10.92-5.65-16-7.84-3.21-1.35-6.42-2.51-9.56-3.49a40.4,40.4,0,0,0-10.79-2,12.5,12.5,0,0,0-6.4,1.39,7.16,7.16,0,0,0-2.91,3.13l-.1.24a7.19,7.19,0,0,0-.44,1.37,6.43,6.43,0,0,0-.18,2.12,10,10,0,0,0,3.06,6.06,25.62,25.62,0,0,0,4.22,3.45A69.22,69.22,0,0,0,201.32,182.63Z"/><circle class="cls-2" cx="167.26" cy="73.85" r="1.73" transform="translate(40.03 205.16) rotate(-69.73)"/><circle class="cls-2" cx="168.82" cy="76.57" r="1.11" transform="translate(38.49 208.39) rotate(-69.72)"/><path class="cls-2" d="M165.42,80.12a2.74,2.74,0,0,0,1.46-3.65,2,2,0,0,0-1.34-1.08c-.92-.17-1.95.54-2.92,1.29a.19.19,0,0,1-.24,0,65.68,65.68,0,0,0-7.61-5.57.29.29,0,0,0-.3,0,.24.24,0,0,0-.13.2.29.29,0,0,0,.16.27,31.06,31.06,0,0,1,5.68,4.88c-3.13-1.54-8-2.12-10.56-2.13a.34.34,0,0,0-.32.14.26.26,0,0,0,0,.26.34.34,0,0,0,.3.17A20.08,20.08,0,0,1,159.7,78.6a1,1,0,0,0,1.11.05c.81-.5,1.27-.62,1.43-.56s.06,0,.07.1c.09.45-.11.59-1.06,1.19C143.51,95.56,136.8,121,136.51,121.9s.82,1.74,1.38.2c9.2-30.42,20-35.47,20.41-35.66a2.12,2.12,0,0,0,.84-1.06A4,4,0,0,1,161,83.13a.06.06,0,0,1,.06,0h0l0,0a1.1,1.1,0,0,0,1.07,1.15,2.53,2.53,0,0,1,.46.09l.14,0c4.68,1.73,10.75,11.54,10.42,15.6-.07.83-.42,1.28-1.05,1.39-3.93.1-6.61-3.9-8.66-13.07,0-.23-.22-.34-.35-.31a.27.27,0,0,0-.21.33c.21,5.39,2.57,10.95,6.05,13.59a4.67,4.67,0,0,0,4,1.1,2.41,2.41,0,0,0,1.71-1.84c1.1-4.67-6.51-14.91-11.07-19.37a.7.7,0,0,1-.18-.82.58.58,0,0,1,.69-.26,13.63,13.63,0,0,1,1.78.53c8.19,3,16.75,14.09,17.8,19,.14.67.21,1.55-.3,1.93-.88.64-3.66-.93-7.47-4.24a.38.38,0,0,0-.51,0c-.11.12-.14.34.08.6,2.08,2.6,5.86,5.54,8.17,5.78a1.82,1.82,0,0,0,1.41-.35,2.91,2.91,0,0,0,.48-2.77C184.37,95.49,175.45,84.09,165.42,80.12Z"/><path class="cls-2" d="M139.84,77.79a14,14,0,0,1,2-1.08,35.51,35.51,0,0,1,3.42-1.24l1.36-.42a.29.29,0,0,0,.19-.27.28.28,0,0,0-.09-.2.25.25,0,0,0-.2-.08s-.54,0-1.45.07a18.35,18.35,0,0,0-3.75.73,11,11,0,0,0-2.44,1,5.47,5.47,0,0,0-1.26,1,2.75,2.75,0,0,0-.79,1.88,2.35,2.35,0,0,0,.27,1.09,2.79,2.79,0,0,0,.29.47,3.21,3.21,0,0,0,.33.37,4.71,4.71,0,0,0,1.6.95,11,11,0,0,0,3.27.58,30.2,30.2,0,0,0,6.16-.47c2.09-.34,4-.8,5.19-1.12,1.52-.41,2.77-.79,3.59-1l1.34-.45a.28.28,0,0,0,.18-.32.27.27,0,0,0-.33-.22l-1.4.26c-.9.17-2.13.41-3.64.65-1.93.32-3.56.56-5.15.74a33.51,33.51,0,0,1-5.85.22,9.7,9.7,0,0,1-2.7-.5h0a2.86,2.86,0,0,1-1-.58,1.06,1.06,0,0,1-.35-.65C138.65,78.84,139.13,78.28,139.84,77.79Z"/><path class="cls-2" d="M139.71,69.6c.87.41,1.56.72,2.17,1,1.06.45,2,.8,2.73,1.08l.57.22.68.25.59.21a.28.28,0,0,0,.33-.12.29.29,0,0,0-.09-.39s-.43-.26-1.17-.67l-.28-.15c-.72-.4-1.69-.93-2.82-1.53l-.59-.32c-.47-.25-1-.51-1.45-.8l-.06,0a21.56,21.56,0,0,1-2.09-1.3,7,7,0,0,1-.94-.8,1.36,1.36,0,0,1-.43-.76.33.33,0,0,1,0-.1l0-.09,0-.11a.54.54,0,0,1,.18-.18,2.12,2.12,0,0,1,1-.19,11.61,11.61,0,0,1,2.65.44c.9.24,1.78.55,2.61.85,1.42.51,2.91,1.13,4.55,1.89,1.22.55,2.35,1.08,3.17,1.49l1.2.58a.27.27,0,0,0,.36-.09.29.29,0,0,0-.07-.39s-1.63-1.14-4.17-2.57c-1.65-.9-3.09-1.6-4.52-2.22-.91-.38-1.82-.71-2.7-1a11.43,11.43,0,0,0-3.05-.55,3.54,3.54,0,0,0-1.81.39,2,2,0,0,0-.82.89l0,.07a2,2,0,0,0-.13.39,1.82,1.82,0,0,0,0,.6,2.81,2.81,0,0,0,.87,1.71,7.25,7.25,0,0,0,1.19,1A19.59,19.59,0,0,0,139.71,69.6Z"/><circle class="cls-2" cx="124.8" cy="215.43" r="0.98" transform="translate(-120.53 257.85) rotate(-69.73)"/><circle class="cls-2" cx="125.69" cy="216.99" r="0.64" transform="translate(-121.41 259.69) rotate(-69.72)"/><path class="cls-2" d="M123.75,219a1.56,1.56,0,0,0,.83-2.08,1.13,1.13,0,0,0-.76-.61c-.52-.1-1.11.31-1.66.73a.11.11,0,0,1-.14,0,37.44,37.44,0,0,0-4.34-3.17.17.17,0,0,0-.17,0,.13.13,0,0,0-.08.12.17.17,0,0,0,.09.15,17.7,17.7,0,0,1,3.24,2.78,16.06,16.06,0,0,0-6-1.22.19.19,0,0,0-.18.08.15.15,0,0,0,0,.15.19.19,0,0,0,.17.1,11.44,11.44,0,0,1,5.77,2.12.55.55,0,0,0,.63,0c.46-.29.72-.35.82-.32s0,0,0,.06c0,.26-.06.34-.6.68-10.11,9.22-13.94,23.73-14.1,24.23s.47,1,.79.11c5.25-17.34,11.41-20.22,11.64-20.33a1.21,1.21,0,0,0,.48-.6,2.28,2.28,0,0,1,1.06-1.28h0l0,0a.63.63,0,0,0,.61.66,1.44,1.44,0,0,1,.26.05l.08,0c2.66,1,6.13,6.58,5.94,8.89,0,.47-.24.73-.6.79-2.24.06-3.77-2.23-4.94-7.45,0-.13-.12-.19-.2-.18a.16.16,0,0,0-.12.19c.12,3.07,1.46,6.24,3.45,7.75a2.66,2.66,0,0,0,2.26.63,1.37,1.37,0,0,0,1-1c.63-2.66-3.71-8.5-6.31-11a.4.4,0,0,1-.1-.46.33.33,0,0,1,.4-.15,7.78,7.78,0,0,1,1,.3c4.67,1.72,9.55,8,10.15,10.83.08.38.12.88-.17,1.1-.5.37-2.09-.53-4.26-2.42a.22.22,0,0,0-.29,0c-.06.07-.08.2,0,.34,1.19,1.48,3.34,3.16,4.65,3.29a1,1,0,0,0,.8-.2,1.66,1.66,0,0,0,.27-1.58C134.55,227.77,129.47,221.27,123.75,219Z"/><path class="cls-2" d="M109.17,217.68a8,8,0,0,1,1.16-.62,20.22,20.22,0,0,1,1.95-.71l.77-.24a.16.16,0,0,0,.11-.15.16.16,0,0,0,0-.11.14.14,0,0,0-.11,0s-.31,0-.83,0a10.46,10.46,0,0,0-2.14.42,6.28,6.28,0,0,0-1.39.6,3.12,3.12,0,0,0-.72.56,1.57,1.57,0,0,0-.45,1.07,1.34,1.34,0,0,0,.16.62,1.59,1.59,0,0,0,.17.27,1.82,1.82,0,0,0,.19.21,2.69,2.69,0,0,0,.91.54,6.24,6.24,0,0,0,1.86.33,17.22,17.22,0,0,0,3.51-.27c1.19-.19,2.26-.46,3-.64.87-.23,1.58-.45,2-.59l.77-.26a.16.16,0,0,0,.1-.18.16.16,0,0,0-.19-.13l-.8.15c-.51.1-1.21.23-2.07.37-1.1.18-2,.32-2.94.42a19.1,19.1,0,0,1-3.34.12,5.53,5.53,0,0,1-1.54-.28h0a1.63,1.63,0,0,1-.55-.33.6.6,0,0,1-.2-.37C108.49,218.28,108.76,218,109.17,217.68Z"/><path class="cls-2" d="M109.1,213c.5.24.89.41,1.24.56.6.25,1.13.45,1.55.62l.32.12.39.15.34.12a.16.16,0,0,0,.19-.07.16.16,0,0,0-.05-.22s-.24-.15-.67-.38l-.16-.09-1.61-.87-.34-.18-.83-.45,0,0a12.29,12.29,0,0,1-1.19-.74,4,4,0,0,1-.53-.46.77.77,0,0,1-.24-.43.18.18,0,0,1,0-.06v-.05l0-.06a.31.31,0,0,1,.1-.1,1.21,1.21,0,0,1,.57-.11,6.62,6.62,0,0,1,1.51.25c.51.14,1,.31,1.49.48.81.29,1.66.64,2.59,1.08.7.31,1.34.62,1.81.85l.69.33a.16.16,0,0,0,.2-.05.16.16,0,0,0,0-.22s-.93-.65-2.38-1.46c-.94-.51-1.76-.91-2.58-1.26-.52-.22-1-.41-1.54-.56a6.52,6.52,0,0,0-1.74-.32,2,2,0,0,0-1,.22,1.15,1.15,0,0,0-.47.51l0,0a1.16,1.16,0,0,0-.07.22,1,1,0,0,0,0,.34,1.6,1.6,0,0,0,.49,1,4.13,4.13,0,0,0,.68.56A11.17,11.17,0,0,0,109.1,213Z"/></g></g></svg>