<svg xmlns="http://www.w3.org/2000/svg" viewBox="0 0 34.27 31.96"><defs><style>.cls-1{fill:#D90466;}</style></defs><title>rotate-movil</title><g id="Capa_2" data-name="Capa 2"><g id="Capa_1-2" data-name="Capa 1"><path class="cls-1" d="M17.51,15.23q0-5.65,0-11.31A2.31,2.31,0,0,0,15,1.42c-4.15,0-8.31,0-12.46,0A2.45,2.45,0,0,0,0,4C0,11.48,0,19,0,26.54A2.31,2.31,0,0,0,2.49,29H15a2.32,2.32,0,0,0,2.52-2.52Q17.51,20.86,17.51,15.23ZM1.26,6.07c0-.72,0-1.45,0-2.17A1.08,1.08,0,0,1,2.5,2.68h12c.25,0,.49,0,.74,0a1,1,0,0,1,1,1c0,.83,0,1.67,0,2.5,0,.3-.17.25-.34.25H1.67C1.36,6.46,1.24,6.41,1.26,6.07Zm0,2c0-.29.05-.39.37-.39q7.13,0,14.26,0c.31,0,.38.09.38.38,0,2.4,0,4.81,0,7.21h0c0,2.38,0,4.75,0,7.13,0,.29,0,.39-.37.39q-7.13,0-14.26,0c-.31,0-.38-.08-.38-.38Q1.27,15.27,1.26,8.1Zm15,16.38c0,.71,0,1.42,0,2.13a1,1,0,0,1-1.11,1.14H2.37a1,1,0,0,1-1.11-1.14c0-.72,0-1.45,0-2.17,0-.29.07-.36.36-.36H8.78c2.36,0,4.72,0,7.08,0C16.19,24.08,16.28,24.16,16.27,24.48Zm-6,.69H7.23a.63.63,0,1,0,0,1.25h3.07a.63.63,0,1,0,0-1.25Z"/><path class="cls-1" d="M34.26,16.84a2.3,2.3,0,0,0-2.44-2.4h-11c-.5,0-.78.29-.73.72s.29.53.74.53c2.24,0,4.48,0,6.72,0,.32,0,.41.09.41.41q0,7.07,0,14.14c0,.39-.12.46-.47.46H8.41a1.89,1.89,0,0,0-.37,0,.62.62,0,0,0-.52.51.6.6,0,0,0,.28.64,1,1,0,0,0,.59.11H31.83a2.29,2.29,0,0,0,2.43-2.4Q34.28,23.2,34.26,16.84ZM33,29.53a1,1,0,0,1-1.16,1.16c-.75,0-1.5,0-2.25,0-.33,0-.37-.11-.37-.39,0-2.37,0-4.75,0-7.13h0c0-2.36,0-4.72,0-7.08,0-.33.1-.41.41-.4.74,0,1.47,0,2.21,0A1.06,1.06,0,0,1,33,16.87Q33,23.2,33,29.53Z"/><path class="cls-1" d="M21.48,2.73a3.61,3.61,0,0,1,.34.37.6.6,0,0,1-.06.82A.55.55,0,0,1,21,4c-.53-.49-1.05-1-1.54-1.53a.58.58,0,0,1,0-.85c.46-.47.92-.94,1.39-1.39a.62.62,0,0,1,.91,0,.62.62,0,0,1,0,.88l-.31.33a8.14,8.14,0,0,1,7.41,7.71c.17-.06.25-.2.37-.3a.62.62,0,0,1,.85,0,.6.6,0,0,1,0,.88q-.72.76-1.48,1.48a.59.59,0,0,1-.88,0c-.46-.44-.92-.9-1.36-1.36a.61.61,0,0,1,0-.91.63.63,0,0,1,.89,0l.28.25A6.65,6.65,0,0,0,21.48,2.73Z"/></g></g></svg>