<svg xmlns="http://www.w3.org/2000/svg" viewBox="0 0 35.62 50.23"><defs><style>.cls-1{fill:#bf0067;opacity:0.8;isolation:isolate;}</style></defs><title>woman</title><g id="Capa_2" data-name="Capa 2"><g id="Capa_1-2" data-name="Capa 1"><g id="Recurso_9" data-name="Recurso 9"><g id="Capa_1-3" data-name="Capa 1-3"><path id="Path_37" data-name="Path 37" class="cls-1" d="M35.53,46.64c-.16-.9-.33-1.81-.5-2.72h0a2.39,2.39,0,0,0-.31-1.48v0c-.19-.52-.51-.76-.89-.68a.79.79,0,0,0-.55,1v0c0,.37.12.73.19,1.1a.35.35,0,0,0-.06.17h0a1.27,1.27,0,0,0,0,.34c.06.36.16.71.19,1.08a.22.22,0,0,0,0,.08v.06h0c.09.45.22.89.28,1.34.16,1-.23,1.54-1.29,1.57H30.46a3.74,3.74,0,0,1-1.29-.1.74.74,0,0,1-.14-.22h0v-.07A.64.64,0,0,0,29,48a2.17,2.17,0,0,1,0-.36V43.44a15.4,15.4,0,0,1,.06-2h0V41c.08-.65.19-1.3.32-1.94v-.16a.69.69,0,0,1,0-.13h0A18.18,18.18,0,0,1,30.62,35c.14-.32.29-.31.49-.06a3.33,3.33,0,0,1,.71,1.55.17.17,0,0,0,0,.07h0a5.77,5.77,0,0,0,.39,1.48h0l.27,1.11a.74.74,0,0,0,.83.64h.05a.73.73,0,0,0,.56-.87l0-.07c-.1-.66-.22-1.31-.33-2a.27.27,0,0,1,0-.12h0a1.27,1.27,0,0,1,0-.2h0a2.25,2.25,0,0,0-.46-1.39v0a4.34,4.34,0,0,0-2.32-2.44c-.44-.21-.9-.36-1.36-.53h0a2.65,2.65,0,0,0-1.31-.48H28c-.81-.27-1.61-.57-2.43-.81a5,5,0,0,1-2.14-1.35l-.06-.13a2,2,0,0,0-.41-.41.73.73,0,0,1-.23-.88c.12-.32.41-.35.73-.34a4.24,4.24,0,0,0,1.33.08h0a25.8,25.8,0,0,0,3.17,0,7.76,7.76,0,0,0,3.61-1.09,2.08,2.08,0,0,0,1-2.52c-.06-.23-.13-.47-.21-.7-.27-.78-.54-1.56-.82-2.34a.49.49,0,0,0,0-.12,2.56,2.56,0,0,0-.45-1.25h0a21.14,21.14,0,0,1-.8-4.67,4.56,4.56,0,0,1,0-1.22v-.23a4,4,0,0,0-.07-1.89l-.08-.21a15.59,15.59,0,0,0-1.41-5,.35.35,0,0,0,0-.14A2.22,2.22,0,0,0,28,5.27l-.08-.07A12.55,12.55,0,0,0,26,3.09C22-.3,17.45-.84,12.58,1.17a10.31,10.31,0,0,0-2.71,1.7A.73.73,0,0,0,10.75,4c.13-.09.26-.2.38-.3a5.6,5.6,0,0,1,1.41-.89h.08a2.43,2.43,0,0,0,.52-.17,9.1,9.1,0,0,1,2.43-.79h.07a10.62,10.62,0,0,1,6.3.58H22A4.6,4.6,0,0,1,23.18,3l.09.06h.06a10.23,10.23,0,0,1,3.4,3.24v0l.07.1a7.86,7.86,0,0,1,.59,1.11v.07h0v.09a13.06,13.06,0,0,1,.92,3.69,21.73,21.73,0,0,1,.12,3c0,.14,0,.31-.19.34a.61.61,0,0,1-.77-.52,2.39,2.39,0,0,0-1.54-2,3.57,3.57,0,0,1-1.66-1.53v-.12a8.87,8.87,0,0,0-.61-1l-.06-.07a.1.1,0,0,0,0,0A1.48,1.48,0,0,0,22.77,9a8.51,8.51,0,0,0-7.37,1.91l-.08,0h0a7.4,7.4,0,0,1-1.19.82,3.92,3.92,0,0,1-2,.62h-.26a6.45,6.45,0,0,1-.86-.15,2.63,2.63,0,0,0-3.18,1.92l0,.18c-.07.27-.19.42-.46.4s-.25-.29-.25-.49A18.74,18.74,0,0,1,7.41,10h0a.09.09,0,0,1,0,0,13.55,13.55,0,0,1,.5-1.76A6.2,6.2,0,0,0,8.38,7h0c0-.21.18-.33.24-.51a.81.81,0,0,0-.27-1,.74.74,0,0,0-1,.34v0L7.23,6A14.62,14.62,0,0,0,5.77,9.94l-.07.18h0a4.08,4.08,0,0,0-.21,2,.38.38,0,0,0,0,.1V14.8A3.48,3.48,0,0,1,5,16.7,1.57,1.57,0,0,0,4.85,18,3.46,3.46,0,0,1,4.55,20l-.14.25h0c-.29.57-.42,1.19-.66,1.77a2.58,2.58,0,0,0-.29.93v.09A5.73,5.73,0,0,0,3,24.76a1.92,1.92,0,0,0,.76,1.79,6.47,6.47,0,0,0,1.81.93l.1.07a2.29,2.29,0,0,0,1.42.31H7.3a23.86,23.86,0,0,0,2.93,0c.63-.06,1.26-.14,1.89-.19a.87.87,0,0,1,1,1A.41.41,0,0,1,13,29a9.06,9.06,0,0,1-3,1.94c-1.52.45-3,1-4.51,1.57a4.81,4.81,0,0,0-3.32,3.86L1.18,41a1.67,1.67,0,0,0-.08.2,6.15,6.15,0,0,0-.41,2.17.34.34,0,0,0,0,.1C.48,44.64.26,45.81.06,47a2.64,2.64,0,0,0,1.58,3c.2.09.44.06.61.24H10c.56-.23.67-.41.57-1a.64.64,0,0,1,0-.07h0a1,1,0,0,0-.92-.53H8.9c-.57,0-.6,0-.61-.61V44.55h0V42.77h0V42.7A17.39,17.39,0,0,0,7.49,37a2.6,2.6,0,0,1-.1-.25h0v-.12h0c-.15-.43-.28-.87-.44-1.29v0a.14.14,0,0,1,0-.07c-.1-.23-.2-.45-.31-.68C6.4,34,6.43,34,7,33.79l2-.72h.13c.47-.15.92-.34,1.39-.5a.33.33,0,0,1,.5.25,2.1,2.1,0,0,0,.06.24v.07h0a21.28,21.28,0,0,0,2,4.57l.09.16.06.09c.22.36.46.69.67,1.06a.16.16,0,0,1,0,.07h0a14.16,14.16,0,0,0,2.53,2.6,2.4,2.4,0,0,0,1.07.47h.09A2.18,2.18,0,0,0,19,41.76a8.08,8.08,0,0,0,1.33-1.14,16,16,0,0,0,3-4.36,1,1,0,0,0,0-.1h0a19.8,19.8,0,0,0,1.27-3.34c.09-.34.24-.42.55-.28s.93.34,1.4.51h.07c.49.14,1,.34,1.43.5h.18c.18.06.37.11.55.18.42.16.47.26.28.65a12.38,12.38,0,0,0-.52,1.26,20.79,20.79,0,0,0-1.25,5.54h0v1.71h0v4.88c0,.67,0,.69-.68.69H13.72a3.36,3.36,0,0,0-.55,0H13a.87.87,0,0,0-.66.85A.72.72,0,0,0,13,50H33.32s0-.07,0-.07a2.67,2.67,0,0,0,2.21-3.06q0-.13-.05-.25Zm-29-6.09A.62.62,0,0,1,6.6,41v7.34c0,.1.08.24-.09.29H4.07a5.2,5.2,0,0,1-1.67-.07c-.73-.14-1.07-.63-.93-1.48s.38-2,.58-3,.43-2,.64-3a18.78,18.78,0,0,1,.49-2.46c.3-1.43.25-3,1.56-4.11a9.73,9.73,0,0,1,.8,2A6.89,6.89,0,0,1,6,38a14.37,14.37,0,0,1,.56,2.59Zm20.9-23v-1c0-.35,0-.31.29-.3A1.45,1.45,0,0,1,29,17.51a1.39,1.39,0,0,1-1.31,1.31c-.23,0-.33,0-.31-.27s0-.62,0-1Zm-.24,3.75c.08-.66.24-1.1,1-1.06a1.4,1.4,0,0,0,.86-.31c.32-.24.43-.1.5.21s.15.56.23.84l.57,1.57c.22.58.46,1.14.65,1.73a.93.93,0,0,1-.43,1.24l-.14.06a7.85,7.85,0,0,1-4.08.69,9.61,9.61,0,0,1-1.83-.07,13.32,13.32,0,0,0,1.33-1.61,9.87,9.87,0,0,0,1.38-3.25Zm-19.63-5c.2,0,.3,0,.29.27s0,.68,0,1h0v1c0,.31-.08.27-.29.26a1.26,1.26,0,0,1-.18-2.52h.18ZM7,26.19a4.85,4.85,0,0,1-2-.65c-.55-.3-.67-.56-.49-1.16A13.56,13.56,0,0,1,5,23c.35-.89.68-1.79,1-2.71.07-.24.16-.34.43-.19a2.32,2.32,0,0,0,1.21.3c.22,0,.33.06.36.29a10.36,10.36,0,0,0,1.14,3.5,13.59,13.59,0,0,0,1.65,2.13A15.91,15.91,0,0,1,7,26.2Zm3.91-2a4.76,4.76,0,0,1-.79-1.29,7.5,7.5,0,0,1-.78-3c0-1.06-.06-2.11,0-3.16,0-.67,0-1.33,0-2a1,1,0,0,1,1.24-1A7.81,7.81,0,0,0,12.5,14a6.79,6.79,0,0,0,2.87-1.15c.92-.58,1.82-1.19,2.75-1.75a6.24,6.24,0,0,1,4.07-.59c.15,0,.3,0,.32.24l.66,1.19a5.32,5.32,0,0,0,2.36,1.88.47.47,0,0,1,.38.45s0,.06,0,.08c0,1.58.08,3.16,0,4.74v.72a8,8,0,0,1-4.41,6.88,7.74,7.74,0,0,1-5,.88,5.84,5.84,0,0,1-1.78-.46,7.45,7.45,0,0,1-3.82-2.87Zm7,7.68c-.11.1-.18.15-.32,0l-3-3v-.18c.68.13,1.33.32,2,.4a9.89,9.89,0,0,0,4.15-.42c.11,0,.24-.18.34,0s0,.24-.13.34Zm.86,3.7c-.16.31-.36.54-.76.45a1.29,1.29,0,0,0-.28,0c-.26-.06-.59.13-.83-.26s-.23-.53.08-.77.46-.75.77-.73.51.45.73.74.51.2.33.56Zm-3,1.49c-.13.38-.23.77-.37,1.25a11.09,11.09,0,0,1-1.13-1.66l.83-.2c.15,0,.31-.22.43,0s.38.31.28.6Zm-.52-2.4a1.41,1.41,0,0,1-1.13.47.89.89,0,0,1-.92-.63c-.37-.92-.66-1.87-.94-2.82a.43.43,0,0,1,.17-.54c.42-.31.8-.9,1.22-.92s.75.64,1.13,1l1.67,1.64c.19.17.19.28,0,.46-.37.43-.78.88-1.16,1.33Zm3.45,5.11-.14.13c-.81.69-1.25.63-1.92-.21-.11-.13-.06-.23,0-.35.13-.43.29-.86.38-1.3s.27-.68.73-.54c.43-.11.59.08.68.47a11.62,11.62,0,0,0,.41,1.39.29.29,0,0,1-.1.4h0Zm1.35-1.43c-.15-.47-.24-.85-.38-1.21s.08-.45.21-.64.3,0,.44,0a3.92,3.92,0,0,0,.81.13,8.4,8.4,0,0,1-1,1.71ZM23,32.54a18.82,18.82,0,0,1-.63,1.78,1.2,1.2,0,0,1-2.08.43,13.48,13.48,0,0,1-1-1.17c-.5-.47-.5-.47,0-.92.73-.71,1.48-1.41,2.18-2.15.35-.36.6-.4.88,0h.09c1,.82.94.82.6,2Z"/></g></g></g></g></svg>