<svg xmlns="http://www.w3.org/2000/svg" viewBox="0 0 49.36 46.63"><defs><style>.cls-1{opacity:0.8;}.cls-2{fill:#D90466;}</style></defs><title>womanx2</title><g id="Capa_2" data-name="Capa 2"><g id="Capa_1-2" data-name="Capa 1"><g id="Recurso_9" data-name="Recurso 9"><g id="Capa_1-3" data-name="Capa 1-3"><g id="Group_30" data-name="Group 30" class="cls-1"><path id="Path_55" data-name="Path 55" class="cls-2" d="M29.42,40.21a7.37,7.37,0,0,0-3-5.82,30,30,0,0,0-3.33-2,12.38,12.38,0,0,1-1.66-1c.14-.15.32-.14.47-.19a7.4,7.4,0,0,0,5.73-6.42,20.67,20.67,0,0,0-1.21-10.44A14.12,14.12,0,0,0,22.08,8.2,12.09,12.09,0,0,0,4.37,11.66,20,20,0,0,0,1.84,24.78a7.19,7.19,0,0,0,4.83,6.11c.44.17.9.3,1.48.49l-2,1.17a32.19,32.19,0,0,0-2.93,1.78A7.35,7.35,0,0,0,.13,39.17C-.29,41.52.31,42.84,2.38,44a10.5,10.5,0,0,0,2.14,1,34.13,34.13,0,0,0,18.9.47,12.07,12.07,0,0,0,4.48-2A3.6,3.6,0,0,0,29.42,40.21ZM4.24,26.33a8.38,8.38,0,0,1-.73-3.38A18.72,18.72,0,0,1,6,12.41a10.24,10.24,0,0,1,16-1.78,14.93,14.93,0,0,1,3.41,6.89,20.74,20.74,0,0,1,.5,4.75,10.77,10.77,0,0,1-.53,3.53,5.48,5.48,0,0,1-3.93,3.48,3.28,3.28,0,0,1-.51.15c-.35,0-.74.35-1,.08A1.94,1.94,0,0,1,20,27.79,11.38,11.38,0,0,0,21.89,24a1.33,1.33,0,0,1,.48-.73,4.46,4.46,0,0,0,1.27-5.06c-.08-.2-.21-.21-.37-.24a2.85,2.85,0,0,1-2.56-2.68c-.07-.44-.19-.87-.28-1.3a2.76,2.76,0,0,0-1.85-2c-.29-.12-.3.1-.38.24-.37.71-.73,1.43-1.12,2.13a8.26,8.26,0,0,1-1.46,1.92,2.75,2.75,0,0,1-2,.82H9.48a7.08,7.08,0,0,0-3.45,1,.51.51,0,0,0-.24.33,4.41,4.41,0,0,0,1.43,4.92.9.9,0,0,1,.33.46A11.55,11.55,0,0,0,9.62,28a2.94,2.94,0,0,1-.1,1.61c-.06.07-.12,0-.19,0C7.18,29.18,5.25,28.46,4.24,26.33Zm4,10.62a7,7,0,0,1,.71-2.48,11.16,11.16,0,0,0,2.25,2.36l-2.74.42c-.33,0-.26-.16-.26-.28Zm5.56,2.37c-.06.78,0,1.57,0,2.35V44.2c0,.34-.1.43-.43.39-.51-.06-1-.09-1.55-.11-.26,0-.38-.11-.4-.38A14.12,14.12,0,0,0,10,39.36c-.17-.36-.07-.42.29-.47a16.65,16.65,0,0,1,2.82-.29c.42,0,.7.13.65.72Zm.69-2.46a22,22,0,0,1-3.24-2.55,4.88,4.88,0,0,1-1.08-1.64A.53.53,0,0,1,10.3,32c1.24-1.27,1.33-2.9,1.33-4.55a.41.41,0,0,0-.15-.27,9.11,9.11,0,0,1-2.25-4.38,1.32,1.32,0,0,0-.66-.89,2.19,2.19,0,0,1-1.16-2,.58.58,0,0,1,.41-.65,4.55,4.55,0,0,1,1.71-.36h4.08A4.48,4.48,0,0,0,17,17.52a11.84,11.84,0,0,0,1.76-2.31c.16.6.29,1.15.47,1.69a3.7,3.7,0,0,0,2.4,2.48A.57.57,0,0,1,22,20a2.2,2.2,0,0,1-1.22,1.89,1,1,0,0,0-.55.72,8.76,8.76,0,0,1-1.72,3.81,2.61,2.61,0,0,0-.67,2.31,4.83,4.83,0,0,0,1.41,3.32c.15.14.1.27.06.43a3.61,3.61,0,0,1-1.18,1.76c-1,.93-2.26,1.63-3.32,2.54-.18.15-.24.15-.41,0Zm3.71,6.27a4.31,4.31,0,0,0-.12.79c0,.44-.18.59-.6.58a11.75,11.75,0,0,0-1.45.09c-.29,0-.36-.07-.36-.35V39.09c0-.46.28-.47.58-.5a10.67,10.67,0,0,1,2.87.26,3.22,3.22,0,0,1,.53.1,18.69,18.69,0,0,0-1.49,4.18ZM21,37.24l-2.83-.47a10.56,10.56,0,0,0,2.28-2.08A7.21,7.21,0,0,1,21.22,37c0,.17,0,.33-.27.28Z"/><path id="Path_56" data-name="Path 56" class="cls-2" d="M47.34,27.36A15.78,15.78,0,0,0,43.94,25a18.36,18.36,0,0,1-2-1.21l.38-.13A6.8,6.8,0,0,0,47.59,18,18.45,18.45,0,0,0,45.77,6.36C42.77.48,37-1,32,.57c-3.62,1.1-5.8,3.76-7.23,7.13-.1.25,0,.36.14.51a13.44,13.44,0,0,1,1.36,1.73A22,22,0,0,1,29.7,23a11,11,0,0,1-1.86,6.23.52.52,0,0,0-.11.4c.17,1.14.34,1.66,1.69,1.5h.43a.36.36,0,0,1,.36.23,15.59,15.59,0,0,1,1.33,4.06c0,.28,0,.39-.32.32s-.69-.11-1.08-.17c.14.29.26.53.37.78a2.92,2.92,0,0,1,.29.74c.07.45.33.56.72.6A32.82,32.82,0,0,0,43.62,37a11.43,11.43,0,0,0,4.21-1.81,3.22,3.22,0,0,0,1.52-2.47,6.85,6.85,0,0,0-2-5.33Zm-17.4,1.87c-.28,0-.38,0-.35-.33a7.63,7.63,0,0,1,.61-2,10.08,10.08,0,0,0,1.92,2Zm4.7,2v4.4c0,.32,0,.45-.43.46s-.78-.16-.83-.75a12,12,0,0,0-1.07-3.79c-.3-.69-.3-.68.43-.79a8.15,8.15,0,0,1,1.39-.08c.35,0,.49.09.49.51Zm.69-2.32a19.82,19.82,0,0,1-3-2.39,5.43,5.43,0,0,1-.62-.81c-.46-.72-.43-.8.08-1.46a6.08,6.08,0,0,0,1-4,.38.38,0,0,0-.17-.28,8.43,8.43,0,0,1-2.11-4.09,1,1,0,0,0-.57-.76,1.5,1.5,0,0,1-.63-.49,1.71,1.71,0,0,1-.4-1.6c.18-.44.79-.53,1.26-.54,1.38,0,2.76-.07,4.13,0a4.61,4.61,0,0,0,3.82-1.73,17.23,17.23,0,0,0,1.17-1.59c.12.46.21.86.33,1.25a3.63,3.63,0,0,0,2.31,2.49.48.48,0,0,1,.38.56v0a2,2,0,0,1-1.14,1.7.74.74,0,0,0-.47.53A8.54,8.54,0,0,1,38.53,20a.41.41,0,0,0-.11.34c0,1.56.08,3.1,1.31,4.28.19.18.1.36,0,.54a3.21,3.21,0,0,1-1.1,1.49c-1,.76-2,1.49-2.94,2.25a.27.27,0,0,1-.36,0Zm2.62,5.3c-.1.51-.18,1-.26,1.53s-.61.22-.91.32-.27-.16-.27-.36V31.13c0-.33.14-.43.43-.46a8.28,8.28,0,0,1,2.2.16,18.62,18.62,0,0,0-1.19,3.34Zm8.52-.37a12.54,12.54,0,0,1-3.32,1.33,31.93,31.93,0,0,1-3.21.63c-.32.06-.36,0-.31-.32A15.23,15.23,0,0,1,41,31.42c.09-.21.2-.27.4-.23h.38c1.23.06,1.48-.14,1.66-1.34A5.36,5.36,0,0,0,43,27.23c-.06-.2-.15-.39-.27-.69a17.74,17.74,0,0,1,2.48,1.52,5.45,5.45,0,0,1,2.2,3.72,1.83,1.83,0,0,1-.93,2Z"/></g></g></g></g></g></svg>