<svg xmlns="http://www.w3.org/2000/svg" viewBox="0 0 75.1 75.1"><defs><style>.cls-1{fill:#fff;}.cls-2{fill:#2c2c2c;}.cls-2,.cls-3{fill-rule:evenodd;}.cls-3{fill:#ac0100;}</style></defs><title>youtube-nosotros</title><g id="Capa_2" data-name="Capa 2"><g id="Nosotros"><rect class="cls-1" width="75.1" height="75.1" rx="16.66" ry="16.66"/><path class="cls-2" d="M37.18,20.06a2.91,2.91,0,0,0-1,0,3,3,0,0,0-2.47,2.15s-.11.77-.11,1.1v5.5a3.9,3.9,0,0,0,.55,1.76,2.83,2.83,0,0,0,2.18,1.29,5.62,5.62,0,0,0,.81,0,2.8,2.8,0,0,0,2.07-1.28,3.91,3.91,0,0,0,.55-1.76V23.3c0-.33-.11-1.1-.11-1.1a3.05,3.05,0,0,0-2.5-2.15m.52,3.25v5.5c0,1.32-1,1.21-1,1.21s-1.1.11-1.1-1.21V23.3c0-1.54,1.1-1.43,1.1-1.43,1.1,0,1,1.43,1,1.43m-8.14-1.1-1.65-6H25.49l3,9.24v6.27h2.2V25.39l2.86-9.24H31.21ZM45.5,20.11V29a1.93,1.93,0,0,1-1.21,1c-.77,0-.66-.55-.66-.55V20.11H41.54v10a1.54,1.54,0,0,0,1.65,1.76c1.1,0,2.31-1.43,2.31-1.43v1.32h2.09V20.11Z"/><path class="cls-3" d="M52.07,35.22c-2.55-.44-5.43-.33-14.63-.44-6.21,0-9.33.11-9.76.11-4,.22-6.77-.33-7.76,4a48.21,48.21,0,0,0-.66,7.92C19.48,52,19,58.17,24,58.62c2.56.22,9.21.33,13.59.33,6,0,12.47-.11,14.69-.56a4.24,4.24,0,0,0,2.11-1.66c1.3-1.74,1.32-4.36,1.44-10-.22-4.77.11-11-3.77-11.53M30,40.76H27.47V54.19H25.13V40.76H22.69V38.44H30a16.45,16.45,0,0,1,0,2.33M36.55,54.3H34.45V53s-1.11,1.45-2.33,1.45-1.67-.78-1.67-2.22V42.54h2.11V52s0,.44.56.44a1.88,1.88,0,0,0,1.33-1V42.54h2.11Zm8.1-2.11s-.23,2.22-1.56,2.22a3.18,3.18,0,0,1-2.55-1.33V54.3H38.44V38.55h2.11v5.1s1.11-1.33,2.11-1.33a2,2,0,0,1,2,2.11Zm8,0c-.33,2-2.78,2.22-2.78,2.22a3.2,3.2,0,0,1-3.44-3.33V45.53a4.53,4.53,0,0,1,.22-1.11c.23-.66.45-2,3.11-2a2.92,2.92,0,0,1,3,3.11v3.22H48.53v2.33a1.19,1.19,0,0,0,1.22,1.33c.89,0,.89-1.33.89-1.33v-.89h2.11a6.72,6.72,0,0,1-.11,2m-2-6.65s-.11-1.22-1-1.22-1.11,1-1.11,1.22V47h2.11Zm-9-1.22a1.59,1.59,0,0,0-1,.44V52a1.37,1.37,0,0,0,1,.44c.89,0,.89-1,.89-1V45.53c0-.77-.34-1.22-.89-1.22"/></g></g></svg>